# xmcd
#
# Track frame offsets: 
#        150
#        10939
#        21623
#        30728
#        45494
#        57468
#        70052
#        84505
#        96349
#        109559
#        124225
#        140627
#        160875
#        173269
#        184636
#        195405
#        207475
#        221972
#
# Disc length: 3094 seconds
#
# Revision: 0
# Processed by: cddbd v1.5.2PL0 Copyright (c) Steve Scherf et al.
# Submitted via: ExactAudioCopyFreeDBPlugin 1.0
#
DISCID=000c1412
DTITLE=The Larks - The Best of The Larks (Jamie-Guyden Doo-Wop Volume 
DTITLE=3)
DYEAR=2000
DGENRE=Rhythm and Blues
TTITLE0=It's Unbelievable
TTITLE1=Fabulous Cars and Diamond Rings
TTITLE2=For the Love of Money
TTITLE3=Let's Drink a Toast
TTITLE4=There is a Girl
TTITLE5=Heaven Only Knows
TTITLE6=Keep on Forgetting
TTITLE7=Love Me True
TTITLE8=Don't Cry
TTITLE9=From the Bottom of My Heart (I Still Love You)
TTITLE10=Rain
TTITLE11=Groovin at the Go Go
TTITLE12=Dedicated to You
TTITLE13=Fabulous Cars and Diamond Rings (second version)
TTITLE14=It's Unbelievable
TTITLE15=I Need Somebody to Love
TTITLE16=Another Chance
TTITLE17=Without You Baby
EXTD=
EXTT0=
EXTT1=
EXTT2=
EXTT3=
EXTT4=
EXTT5=
EXTT6=
EXTT7=
EXTT8=
EXTT9=
EXTT10=
EXTT11=
EXTT12=
EXTT13=
EXTT14=
EXTT15=
EXTT16=
EXTT17=
PLAYORDER=
